<svg id="visual" viewBox="0 0 750 890" width="750" height="890" xmlns="http://www.w3.org/2000/svg" xmlns:xlink="http://www.w3.org/1999/xlink" version="1.1"><g stroke-width="1" stroke-linejoin="bevel"><path d="M394.7 375.6L424.7 329.5L372.3 368.6Z" fill="#479bdf" stroke="#479bdf"></path><path d="M394.7 375.6L428 380.6L424.7 329.5Z" fill="#081f34" stroke="#081f34"></path><path d="M424.7 329.5L319 354.6L372.3 368.6Z" fill="#0f2c47" stroke="#0f2c47"></path><path d="M373.3 519.5L450 419.5L394.7 375.6Z" fill="#479bdf" stroke="#479bdf"></path><path d="M373.3 519.5L394.7 375.6L372.3 368.6Z" fill="#0f2c47" stroke="#0f2c47"></path><path d="M394.7 375.6L450 419.5L428 380.6Z" fill="#081f34" stroke="#081f34"></path><path d="M428 380.6L503 354.5L424.7 329.5Z" fill="#275984" stroke="#275984"></path><path d="M503 354.5L450.7 256.7L424.7 329.5Z" fill="#275984" stroke="#275984"></path><path d="M424.7 329.5L383.3 222.8L319 354.6Z" fill="#0f2c47" stroke="#0f2c47"></path><path d="M259.3 310.7L290 354.5L319 354.6Z" fill="#081f34" stroke="#081f34"></path><path d="M319 354.6L284.3 449.5L372.3 368.6Z" fill="#275984" stroke="#275984"></path><path d="M373.3 519.5L458.7 425.5L450 419.5Z" fill="#3779b0" stroke="#3779b0"></path><path d="M450 419.5L503 354.5L428 380.6Z" fill="#479bdf" stroke="#479bdf"></path><path d="M458.7 425.5L503 354.5L450 419.5Z" fill="#4facf7" stroke="#4facf7"></path><path d="M450.7 256.7L383.3 222.8L424.7 329.5Z" fill="#275984" stroke="#275984"></path><path d="M536.3 276.6L489 243.7L450.7 256.7Z" fill="#4facf7" stroke="#4facf7"></path><path d="M450.7 256.7L412.7 145.8L383.3 222.8Z" fill="#2f699a" stroke="#2f699a"></path><path d="M383.3 222.8L259.3 310.7L319 354.6Z" fill="#3779b0" stroke="#3779b0"></path><path d="M221.7 410.5L284.3 449.5L290 354.5Z" fill="#275984" stroke="#275984"></path><path d="M290 354.5L284.3 449.5L319 354.6Z" fill="#479bdf" stroke="#479bdf"></path><path d="M503 354.5L536.3 276.6L450.7 256.7Z" fill="#4facf7" stroke="#4facf7"></path><path d="M284.3 449.5L373.3 519.5L372.3 368.6Z" fill="#001122" stroke="#001122"></path><path d="M259.3 310.7L221.7 410.5L290 354.5Z" fill="#173b5a" stroke="#173b5a"></path><path d="M284.3 449.5L207.7 524.4L373.3 519.5Z" fill="#173b5a" stroke="#173b5a"></path><path d="M221.7 410.5L221 420.5L284.3 449.5Z" fill="#479bdf" stroke="#479bdf"></path><path d="M373.3 519.5L479 517.4L458.7 425.5Z" fill="#4facf7" stroke="#4facf7"></path><path d="M629.7 410.5L630.3 392.5L503 354.5Z" fill="#173b5a" stroke="#173b5a"></path><path d="M503 354.5L630.3 392.5L536.3 276.6Z" fill="#081f34" stroke="#081f34"></path><path d="M503 143.9L412.7 145.8L489 243.7Z" fill="#3779b0" stroke="#3779b0"></path><path d="M489 243.7L412.7 145.8L450.7 256.7Z" fill="#081f34" stroke="#081f34"></path><path d="M229 177.8L194 251.7L259.3 310.7Z" fill="#479bdf" stroke="#479bdf"></path><path d="M229 177.8L259.3 310.7L383.3 222.8Z" fill="#001122" stroke="#001122"></path><path d="M259.3 310.7L143.3 407.5L221.7 410.5Z" fill="#4facf7" stroke="#4facf7"></path><path d="M221.7 410.5L143.3 407.5L221 420.5Z" fill="#2f699a" stroke="#2f699a"></path><path d="M625.3 208.8L573.3 207.7L536.3 276.6Z" fill="#479bdf" stroke="#479bdf"></path><path d="M536.3 276.6L573.3 207.7L489 243.7Z" fill="#3f8ac7" stroke="#3f8ac7"></path><path d="M573.3 207.7L503 143.9L489 243.7Z" fill="#001122" stroke="#001122"></path><path d="M412.7 145.8L229 177.8L383.3 222.8Z" fill="#479bdf" stroke="#479bdf"></path><path d="M629.7 410.5L503 354.5L458.7 425.5Z" fill="#4facf7" stroke="#4facf7"></path><path d="M229 177.8L202.7 190.8L194 251.7Z" fill="#001122" stroke="#001122"></path><path d="M202.7 190.8L162.7 255.6L194 251.7Z" fill="#4facf7" stroke="#4facf7"></path><path d="M194 251.7L162.7 255.6L259.3 310.7Z" fill="#4facf7" stroke="#4facf7"></path><path d="M479 517.4L629.7 410.5L458.7 425.5Z" fill="#173b5a" stroke="#173b5a"></path><path d="M367.7 31.9L257 80.9L412.7 145.8Z" fill="#1f4a6f" stroke="#1f4a6f"></path><path d="M573.3 207.7L544 135.8L503 143.9Z" fill="#275984" stroke="#275984"></path><path d="M535.3 589.4L544.3 550.5L479 517.4Z" fill="#001122" stroke="#001122"></path><path d="M479 517.4L544.3 550.5L629.7 410.5Z" fill="#173b5a" stroke="#173b5a"></path><path d="M162.7 255.6L143.3 407.5L259.3 310.7Z" fill="#3779b0" stroke="#3779b0"></path><path d="M221 420.5L207.7 524.4L284.3 449.5Z" fill="#0f2c47" stroke="#0f2c47"></path><path d="M143.3 407.5L207.7 524.4L221 420.5Z" fill="#001122" stroke="#001122"></path><path d="M465.7 639.4L535.3 589.4L479 517.4Z" fill="#275984" stroke="#275984"></path><path d="M683.7 334.5L625.3 208.8L536.3 276.6Z" fill="#173b5a" stroke="#173b5a"></path><path d="M573.3 207.7L625.3 208.8L544 135.8Z" fill="#275984" stroke="#275984"></path><path d="M162.7 255.6L117.7 387.5L143.3 407.5Z" fill="#173b5a" stroke="#173b5a"></path><path d="M92.7 596.3L198 601.4L207.7 524.4Z" fill="#173b5a" stroke="#173b5a"></path><path d="M465.7 639.4L479 517.4L373.3 519.5Z" fill="#1f4a6f" stroke="#1f4a6f"></path><path d="M544.3 550.5L637.7 504.4L629.7 410.5Z" fill="#081f34" stroke="#081f34"></path><path d="M750 449.5L683.7 334.5L630.3 392.5Z" fill="#173b5a" stroke="#173b5a"></path><path d="M630.3 392.5L683.7 334.5L536.3 276.6Z" fill="#1f4a6f" stroke="#1f4a6f"></path><path d="M750 449.5L630.3 392.5L629.7 410.5Z" fill="#2f699a" stroke="#2f699a"></path><path d="M679.7 638.3L637.7 504.4L544.3 550.5Z" fill="#0f2c47" stroke="#0f2c47"></path><path d="M229 177.8L257 80.9L202.7 190.8Z" fill="#3779b0" stroke="#3779b0"></path><path d="M83.3 252.6L98.7 291.7L162.7 255.6Z" fill="#081f34" stroke="#081f34"></path><path d="M412.7 145.8L257 80.9L229 177.8Z" fill="#001122" stroke="#001122"></path><path d="M367.7 31.9L412.7 145.8L503 143.9Z" fill="#001122" stroke="#001122"></path><path d="M83.3 252.6L162.7 255.6L102.3 175.8Z" fill="#479bdf" stroke="#479bdf"></path><path d="M162.7 255.6L98.7 291.7L117.7 387.5Z" fill="#4facf7" stroke="#4facf7"></path><path d="M301.3 665.3L465.7 639.4L373.3 519.5Z" fill="#2f699a" stroke="#2f699a"></path><path d="M558 0L367.7 31.9L503 143.9Z" fill="#1f4a6f" stroke="#1f4a6f"></path><path d="M207.7 524.4L283.3 636.4L373.3 519.5Z" fill="#2f699a" stroke="#2f699a"></path><path d="M750 309.6L708.7 294.6L683.7 334.5Z" fill="#2f699a" stroke="#2f699a"></path><path d="M683.7 334.5L708.7 294.6L625.3 208.8Z" fill="#1f4a6f" stroke="#1f4a6f"></path><path d="M102.3 175.8L162.7 255.6L202.7 190.8Z" fill="#0f2c47" stroke="#0f2c47"></path><path d="M0 429.5L69.3 502.5L117.7 387.5Z" fill="#2f699a" stroke="#2f699a"></path><path d="M69.3 502.5L207.7 524.4L143.3 407.5Z" fill="#2f699a" stroke="#2f699a"></path><path d="M207.7 524.4L198 601.4L283.3 636.4Z" fill="#173b5a" stroke="#173b5a"></path><path d="M198 601.4L258 640.3L283.3 636.4Z" fill="#4facf7" stroke="#4facf7"></path><path d="M283.3 636.4L301.3 665.3L373.3 519.5Z" fill="#275984" stroke="#275984"></path><path d="M750 309.6L715.7 284.7L708.7 294.6Z" fill="#3f8ac7" stroke="#3f8ac7"></path><path d="M708.7 294.6L715.7 284.7L625.3 208.8Z" fill="#081f34" stroke="#081f34"></path><path d="M669.7 126.8L598.7 81.9L544 135.8Z" fill="#275984" stroke="#275984"></path><path d="M669.7 126.8L544 135.8L625.3 208.8Z" fill="#081f34" stroke="#081f34"></path><path d="M544 135.8L558 0L503 143.9Z" fill="#3f8ac7" stroke="#3f8ac7"></path><path d="M153.3 11.9L102.3 175.8L202.7 190.8Z" fill="#081f34" stroke="#081f34"></path><path d="M345.7 0L319.3 13.9L367.7 31.9Z" fill="#3f8ac7" stroke="#3f8ac7"></path><path d="M367.7 31.9L319.3 13.9L257 80.9Z" fill="#001122" stroke="#001122"></path><path d="M257 80.9L153.3 11.9L202.7 190.8Z" fill="#001122" stroke="#001122"></path><path d="M258 640.3L301.3 665.3L283.3 636.4Z" fill="#0f2c47" stroke="#0f2c47"></path><path d="M435 719.2L487 668.3L465.7 639.4Z" fill="#3f8ac7" stroke="#3f8ac7"></path><path d="M465.7 639.4L509.3 672.2L535.3 589.4Z" fill="#081f34" stroke="#081f34"></path><path d="M535.3 589.4L679.7 638.3L544.3 550.5Z" fill="#001122" stroke="#001122"></path><path d="M558 0L345.7 0L367.7 31.9Z" fill="#275984" stroke="#275984"></path><path d="M523 755.1L509.3 672.2L487 668.3Z" fill="#173b5a" stroke="#173b5a"></path><path d="M487 668.3L509.3 672.2L465.7 639.4Z" fill="#1f4a6f" stroke="#1f4a6f"></path><path d="M750 264.7L669.7 126.8L625.3 208.8Z" fill="#081f34" stroke="#081f34"></path><path d="M750 449.5L750 309.6L683.7 334.5Z" fill="#4facf7" stroke="#4facf7"></path><path d="M715.7 284.7L750 264.7L625.3 208.8Z" fill="#173b5a" stroke="#173b5a"></path><path d="M345.7 0L282.3 0L319.3 13.9Z" fill="#3f8ac7" stroke="#3f8ac7"></path><path d="M319.3 13.9L282.3 0L257 80.9Z" fill="#081f34" stroke="#081f34"></path><path d="M0 429.5L117.7 387.5L98.7 291.7Z" fill="#2f699a" stroke="#2f699a"></path><path d="M117.7 387.5L69.3 502.5L143.3 407.5Z" fill="#275984" stroke="#275984"></path><path d="M750 309.6L750 264.7L715.7 284.7Z" fill="#3779b0" stroke="#3779b0"></path><path d="M301.3 665.3L392.7 712.3L465.7 639.4Z" fill="#0f2c47" stroke="#0f2c47"></path><path d="M750 463.5L750 449.5L637.7 504.4Z" fill="#2f699a" stroke="#2f699a"></path><path d="M637.7 504.4L750 449.5L629.7 410.5Z" fill="#0f2c47" stroke="#0f2c47"></path><path d="M750 572.4L750 463.5L637.7 504.4Z" fill="#173b5a" stroke="#173b5a"></path><path d="M587.3 0L558 0L598.7 81.9Z" fill="#001122" stroke="#001122"></path><path d="M598.7 81.9L558 0L544 135.8Z" fill="#081f34" stroke="#081f34"></path><path d="M392.7 712.3L435 719.2L465.7 639.4Z" fill="#479bdf" stroke="#479bdf"></path><path d="M282.3 0L217 0L257 80.9Z" fill="#3f8ac7" stroke="#3f8ac7"></path><path d="M750 110.8L657.3 60.9L669.7 126.8Z" fill="#1f4a6f" stroke="#1f4a6f"></path><path d="M669.7 126.8L657.3 60.9L598.7 81.9Z" fill="#001122" stroke="#001122"></path><path d="M301.3 665.3L392.3 733.2L392.7 712.3Z" fill="#0f2c47" stroke="#0f2c47"></path><path d="M392.7 712.3L392.3 733.2L435 719.2Z" fill="#275984" stroke="#275984"></path><path d="M293.3 808.1L392.3 733.2L301.3 665.3Z" fill="#1f4a6f" stroke="#1f4a6f"></path><path d="M189 745.2L301.3 665.3L258 640.3Z" fill="#3f8ac7" stroke="#3f8ac7"></path><path d="M657.3 60.9L587.3 0L598.7 81.9Z" fill="#1f4a6f" stroke="#1f4a6f"></path><path d="M69.3 502.5L92.7 596.3L207.7 524.4Z" fill="#3f8ac7" stroke="#3f8ac7"></path><path d="M198 601.4L150.3 714.3L258 640.3Z" fill="#4facf7" stroke="#4facf7"></path><path d="M0 255.6L0 266.7L83.3 252.6Z" fill="#0f2c47" stroke="#0f2c47"></path><path d="M83.3 252.6L0 266.7L98.7 291.7Z" fill="#081f34" stroke="#081f34"></path><path d="M69.3 502.5L0 599.3L92.7 596.3Z" fill="#4facf7" stroke="#4facf7"></path><path d="M0 255.6L83.3 252.6L14.3 185.7Z" fill="#173b5a" stroke="#173b5a"></path><path d="M0 599.3L96.3 611.4L92.7 596.3Z" fill="#173b5a" stroke="#173b5a"></path><path d="M92.7 596.3L96.3 611.4L198 601.4Z" fill="#4facf7" stroke="#4facf7"></path><path d="M14.3 185.7L83.3 252.6L102.3 175.8Z" fill="#081f34" stroke="#081f34"></path><path d="M0 266.7L0 429.5L98.7 291.7Z" fill="#4facf7" stroke="#4facf7"></path><path d="M217 0L153.3 11.9L257 80.9Z" fill="#0f2c47" stroke="#0f2c47"></path><path d="M523 755.1L487 668.3L435 719.2Z" fill="#0f2c47" stroke="#0f2c47"></path><path d="M523 755.1L631.3 674.3L509.3 672.2Z" fill="#3f8ac7" stroke="#3f8ac7"></path><path d="M509.3 672.2L631.3 674.3L535.3 589.4Z" fill="#2f699a" stroke="#2f699a"></path><path d="M0 128.8L14.3 185.7L102.3 175.8Z" fill="#4facf7" stroke="#4facf7"></path><path d="M631.3 674.3L679.7 638.3L535.3 589.4Z" fill="#001122" stroke="#001122"></path><path d="M750 264.7L750 126.9L669.7 126.8Z" fill="#001122" stroke="#001122"></path><path d="M657.3 60.9L700.7 0L587.3 0Z" fill="#081f34" stroke="#081f34"></path><path d="M217 0L150.7 0L153.3 11.9Z" fill="#0f2c47" stroke="#0f2c47"></path><path d="M153.3 11.9L108.7 15.9L102.3 175.8Z" fill="#479bdf" stroke="#479bdf"></path><path d="M0 429.5L0 496.4L69.3 502.5Z" fill="#2f699a" stroke="#2f699a"></path><path d="M679.7 638.3L750 572.4L637.7 504.4Z" fill="#2f699a" stroke="#2f699a"></path><path d="M750 126.9L750 110.8L669.7 126.8Z" fill="#001122" stroke="#001122"></path><path d="M0 496.4L0 504.5L69.3 502.5Z" fill="#2f699a" stroke="#2f699a"></path><path d="M679.7 638.3L750 584.3L750 572.4Z" fill="#001122" stroke="#001122"></path><path d="M150.7 0L108.7 15.9L153.3 11.9Z" fill="#479bdf" stroke="#479bdf"></path><path d="M392.3 733.2L469.7 768.2L435 719.2Z" fill="#275984" stroke="#275984"></path><path d="M461.7 879.1L469.7 768.2L392.3 733.2Z" fill="#3779b0" stroke="#3779b0"></path><path d="M469.7 768.2L523 755.1L435 719.2Z" fill="#2f699a" stroke="#2f699a"></path><path d="M631.3 674.3L750 662.2L679.7 638.3Z" fill="#275984" stroke="#275984"></path><path d="M118.3 750.1L150.3 714.3L96.3 611.4Z" fill="#275984" stroke="#275984"></path><path d="M96.3 611.4L150.3 714.3L198 601.4Z" fill="#3779b0" stroke="#3779b0"></path><path d="M108.7 15.9L0 128.8L102.3 175.8Z" fill="#275984" stroke="#275984"></path><path d="M14.3 185.7L0 128.8L0 255.6Z" fill="#081f34" stroke="#081f34"></path><path d="M150.3 714.3L189 745.2L258 640.3Z" fill="#081f34" stroke="#081f34"></path><path d="M750 110.8L700.7 0L657.3 60.9Z" fill="#275984" stroke="#275984"></path><path d="M0 504.5L0 599.3L69.3 502.5Z" fill="#3f8ac7" stroke="#3f8ac7"></path><path d="M150.3 714.3L118.3 750.1L189 745.2Z" fill="#2f699a" stroke="#2f699a"></path><path d="M597.7 834.1L616.7 755.2L523 755.1Z" fill="#1f4a6f" stroke="#1f4a6f"></path><path d="M523 755.1L616.7 755.2L631.3 674.3Z" fill="#4facf7" stroke="#4facf7"></path><path d="M679.7 638.3L750 662.2L750 584.3Z" fill="#3f8ac7" stroke="#3f8ac7"></path><path d="M189 745.2L293.3 808.1L301.3 665.3Z" fill="#3f8ac7" stroke="#3f8ac7"></path><path d="M528.3 867.1L597.7 834.1L523 755.1Z" fill="#0f2c47" stroke="#0f2c47"></path><path d="M616.7 755.2L750 662.2L631.3 674.3Z" fill="#275984" stroke="#275984"></path><path d="M10.3 0L0 48.9L108.7 15.9Z" fill="#3f8ac7" stroke="#3f8ac7"></path><path d="M108.7 15.9L0 48.9L0 128.8Z" fill="#001122" stroke="#001122"></path><path d="M0 724.2L118.3 750.1L96.3 611.4Z" fill="#275984" stroke="#275984"></path><path d="M189 745.2L226 806.1L293.3 808.1Z" fill="#173b5a" stroke="#173b5a"></path><path d="M123.3 798.2L226 806.1L189 745.2Z" fill="#081f34" stroke="#081f34"></path><path d="M750 110.8L750 0L700.7 0Z" fill="#479bdf" stroke="#479bdf"></path><path d="M0 724.2L116.7 760.2L118.3 750.1Z" fill="#2f699a" stroke="#2f699a"></path><path d="M118.3 750.1L116.7 760.2L189 745.2Z" fill="#3779b0" stroke="#3779b0"></path><path d="M150.7 0L10.3 0L108.7 15.9Z" fill="#173b5a" stroke="#173b5a"></path><path d="M10.3 0L0 0L0 48.9Z" fill="#3779b0" stroke="#3779b0"></path><path d="M0 806.1L123.3 798.2L116.7 760.2Z" fill="#3779b0" stroke="#3779b0"></path><path d="M116.7 760.2L123.3 798.2L189 745.2Z" fill="#081f34" stroke="#081f34"></path><path d="M528.3 867.1L523 755.1L469.7 768.2Z" fill="#1f4a6f" stroke="#1f4a6f"></path><path d="M616.7 755.2L750 875.1L750 662.2Z" fill="#173b5a" stroke="#173b5a"></path><path d="M461.7 879.1L392.3 733.2L347.3 890Z" fill="#2f699a" stroke="#2f699a"></path><path d="M347.3 890L392.3 733.2L293.3 808.1Z" fill="#2f699a" stroke="#2f699a"></path><path d="M347.3 890L293.3 808.1L245 890Z" fill="#173b5a" stroke="#173b5a"></path><path d="M461.7 879.1L528.3 867.1L469.7 768.2Z" fill="#1f4a6f" stroke="#1f4a6f"></path><path d="M0 599.3L0 724.2L96.3 611.4Z" fill="#3779b0" stroke="#3779b0"></path><path d="M245 890L293.3 808.1L226 806.1Z" fill="#479bdf" stroke="#479bdf"></path><path d="M347.3 890L470.7 890L461.7 879.1Z" fill="#4facf7" stroke="#4facf7"></path><path d="M461.7 879.1L483 890L528.3 867.1Z" fill="#1f4a6f" stroke="#1f4a6f"></path><path d="M470.7 890L483 890L461.7 879.1Z" fill="#275984" stroke="#275984"></path><path d="M528.3 867.1L607.3 890L597.7 834.1Z" fill="#081f34" stroke="#081f34"></path><path d="M184.7 875.1L245 890L226 806.1Z" fill="#4facf7" stroke="#4facf7"></path><path d="M184.7 875.1L226 806.1L123.3 798.2Z" fill="#4facf7" stroke="#4facf7"></path><path d="M183.7 890L184.7 875.1L134.3 890Z" fill="#081f34" stroke="#081f34"></path><path d="M134.3 890L184.7 875.1L123.3 798.2Z" fill="#479bdf" stroke="#479bdf"></path><path d="M184.7 875.1L183.7 890L245 890Z" fill="#001122" stroke="#001122"></path><path d="M483 890L607.3 890L528.3 867.1Z" fill="#3779b0" stroke="#3779b0"></path><path d="M597.7 834.1L750 875.1L616.7 755.2Z" fill="#173b5a" stroke="#173b5a"></path><path d="M607.3 890L635.7 890L597.7 834.1Z" fill="#081f34" stroke="#081f34"></path><path d="M0 890L134.3 890L123.3 798.2Z" fill="#1f4a6f" stroke="#1f4a6f"></path><path d="M0 724.2L0 806.1L116.7 760.2Z" fill="#3f8ac7" stroke="#3f8ac7"></path><path d="M635.7 890L750 875.1L597.7 834.1Z" fill="#173b5a" stroke="#173b5a"></path><path d="M635.7 890L750 890L750 875.1Z" fill="#081f34" stroke="#081f34"></path><path d="M0 806.1L0 890L123.3 798.2Z" fill="#4facf7" stroke="#4facf7"></path></g></svg>