<svg id="visual" viewBox="0 0 900 600"  width="100%" height="100%" preserveAspectRatio="none" xmlns="http://www.w3.org/2000/svg" xmlns:xlink="http://www.w3.org/1999/xlink" version="1.1">
    <path d="M0 196L21.5 203.5C43 211 86 226 128.8 223.8C171.7 221.7 214.3 202.3 257.2 195.3C300 188.3 343 193.7 385.8 197.5C428.7 201.3 471.3 203.7 514.2 199.2C557 194.7 600 183.3 642.8 179.8C685.7 176.3 728.3 180.7 771.2 184.5C814 188.3 857 191.7 878.5 193.3L900 195L900 0L878.5 0C857 0 814 0 771.2 0C728.3 0 685.7 0 642.8 0C600 0 557 0 514.2 0C471.3 0 428.7 0 385.8 0C343 0 300 0 257.2 0C214.3 0 171.7 0 128.8 0C86 0 43 0 21.5 0L0 0Z" fill="#4facf7"></path>
    <path d="M0 153L21.5 155.8C43 158.7 86 164.3 128.8 159.7C171.7 155 214.3 140 257.2 139.3C300 138.7 343 152.3 385.8 151.2C428.7 150 471.3 134 514.2 130.8C557 127.7 600 137.3 642.8 139.5C685.7 141.7 728.3 136.3 771.2 136.2C814 136 857 141 878.5 143.5L900 146L900 0L878.5 0C857 0 814 0 771.2 0C728.3 0 685.7 0 642.8 0C600 0 557 0 514.2 0C471.3 0 428.7 0 385.8 0C343 0 300 0 257.2 0C214.3 0 171.7 0 128.8 0C86 0 43 0 21.5 0L0 0Z" fill="#8795f9"></path>
    <path d="M0 89L21.5 101C43 113 86 137 128.8 142.5C171.7 148 214.3 135 257.2 133.5C300 132 343 142 385.8 145.5C428.7 149 471.3 146 514.2 139.2C557 132.3 600 121.7 642.8 121.7C685.7 121.7 728.3 132.3 771.2 135.5C814 138.7 857 134.3 878.5 132.2L900 130L900 0L878.5 0C857 0 814 0 771.2 0C728.3 0 685.7 0 642.8 0C600 0 557 0 514.2 0C471.3 0 428.7 0 385.8 0C343 0 300 0 257.2 0C214.3 0 171.7 0 128.8 0C86 0 43 0 21.5 0L0 0Z" fill="#c373e0"></path>
    <path d="M0 70L21.5 77.3C43 84.7 86 99.3 128.8 106.7C171.7 114 214.3 114 257.2 105C300 96 343 78 385.8 75.5C428.7 73 471.3 86 514.2 92.2C557 98.3 600 97.7 642.8 94.5C685.7 91.3 728.3 85.7 771.2 79.8C814 74 857 68 878.5 65L900 62L900 0L878.5 0C857 0 814 0 771.2 0C728.3 0 685.7 0 642.8 0C600 0 557 0 514.2 0C471.3 0 428.7 0 385.8 0C343 0 300 0 257.2 0C214.3 0 171.7 0 128.8 0C86 0 43 0 21.5 0L0 0Z" fill="#ef45ac"></path>
    <path d="M0 25L21.5 32.8C43 40.7 86 56.3 128.8 61C171.7 65.7 214.3 59.3 257.2 59.2C300 59 343 65 385.8 61.5C428.7 58 471.3 45 514.2 39.7C557 34.3 600 36.7 642.8 43.5C685.7 50.3 728.3 61.7 771.2 60.7C814 59.7 857 46.3 878.5 39.7L900 33L900 0L878.5 0C857 0 814 0 771.2 0C728.3 0 685.7 0 642.8 0C600 0 557 0 514.2 0C471.3 0 428.7 0 385.8 0C343 0 300 0 257.2 0C214.3 0 171.7 0 128.8 0C86 0 43 0 21.5 0L0 0Z" fill="#ff0066"></path>
</svg>