 <svg id="visual" viewBox="0 0 900 600" width="100%" height="100%" preserveAspectRatio="none" xmlns="http://www.w3.org/2000/svg" xmlnsXlink="http://www.w3.org/1999/xlink" version="1.1">
    <path d="M0 232L21.5 225.7C43 219.3 86 206.7 128.8 208.7C171.7 210.7 214.3 227.3 257.2 221C300 214.7 343 185.3 385.8 178.3C428.7 171.3 471.3 186.7 514.2 201C557 215.3 600 228.7 642.8 236.3C685.7 244 728.3 246 771.2 233C814 220 857 192 878.5 178L900 164L900 0L878.5 0C857 0 814 0 771.2 0C728.3 0 685.7 0 642.8 0C600 0 557 0 514.2 0C471.3 0 428.7 0 385.8 0C343 0 300 0 257.2 0C214.3 0 171.7 0 128.8 0C86 0 43 0 21.5 0L0 0Z" fill="#001122"></path>
    <path d="M0 200L21.5 187.5C43 175 86 150 128.8 146.5C171.7 143 214.3 161 257.2 172.5C300 184 343 189 385.8 181.7C428.7 174.3 471.3 154.7 514.2 147.3C557 140 600 145 642.8 155.7C685.7 166.3 728.3 182.7 771.2 183.5C814 184.3 857 169.7 878.5 162.3L900 155L900 0L878.5 0C857 0 814 0 771.2 0C728.3 0 685.7 0 642.8 0C600 0 557 0 514.2 0C471.3 0 428.7 0 385.8 0C343 0 300 0 257.2 0C214.3 0 171.7 0 128.8 0C86 0 43 0 21.5 0L0 0Z" fill="#133350"></path>
    <path d="M0 149L21.5 139C43 129 86 109 128.8 109.5C171.7 110 214.3 131 257.2 133.8C300 136.7 343 121.3 385.8 115.7C428.7 110 471.3 114 514.2 112C557 110 600 102 642.8 99C685.7 96 728.3 98 771.2 104.2C814 110.3 857 120.7 878.5 125.8L900 131L900 0L878.5 0C857 0 814 0 771.2 0C728.3 0 685.7 0 642.8 0C600 0 557 0 514.2 0C471.3 0 428.7 0 385.8 0C343 0 300 0 257.2 0C214.3 0 171.7 0 128.8 0C86 0 43 0 21.5 0L0 0Z" fill="#275984"></path>
    <path d="M0 107L21.5 104.8C43 102.7 86 98.3 128.8 92.8C171.7 87.3 214.3 80.7 257.2 77.2C300 73.7 343 73.3 385.8 78.7C428.7 84 471.3 95 514.2 101.3C557 107.7 600 109.3 642.8 107.3C685.7 105.3 728.3 99.7 771.2 93.3C814 87 857 80 878.5 76.5L900 73L900 0L878.5 0C857 0 814 0 771.2 0C728.3 0 685.7 0 642.8 0C600 0 557 0 514.2 0C471.3 0 428.7 0 385.8 0C343 0 300 0 257.2 0C214.3 0 171.7 0 128.8 0C86 0 43 0 21.5 0L0 0Z" fill="#3b81bc"></path>
    <path d="M0 68L21.5 61.2C43 54.3 86 40.7 128.8 35.3C171.7 30 214.3 33 257.2 36C300 39 343 42 385.8 45.5C428.7 49 471.3 53 514.2 51.8C557 50.7 600 44.3 642.8 41C685.7 37.7 728.3 37.3 771.2 35.5C814 33.7 857 30.3 878.5 28.7L900 27L900 0L878.5 0C857 0 814 0 771.2 0C728.3 0 685.7 0 642.8 0C600 0 557 0 514.2 0C471.3 0 428.7 0 385.8 0C343 0 300 0 257.2 0C214.3 0 171.7 0 128.8 0C86 0 43 0 21.5 0L0 0Z" fill="#4facf7"></path>
</svg>